# xmcd
# 
# Track frame offsets:
#     150
#     17020
#     33202
#     44357
# 
# Disc length: 894
# 
# Revision: 0
# Processed by: cddbd v1.5.2PL0 Copyright (c) Steve Scherf et al.
# Submitted via: fre:ac v1.0.17
# 
DISCID=25037c04
DTITLE=Simian - The Wisp (EP)
DYEAR=0
DGENRE=
TTITLE0=The Wisp
TTITLE1=The Tale of Willow Hill
TTITLE2=Turn Around
TTITLE3=What a Dream
EXTD=
EXTT0=
EXTT1=
EXTT2=
EXTT3=
PLAYORDER=
